<?xml version="1.0" encoding="utf-8"?>
<!-- Generator: Adobe Illustrator 15.1.0, SVG Export Plug-In . SVG Version: 6.00 Build 0)  -->
<!DOCTYPE svg PUBLIC "-//W3C//DTD SVG 1.1//EN" "http://www.w3.org/Graphics/SVG/1.1/DTD/svg11.dtd">
<svg version="1.1" id="Layer_1" xmlns="http://www.w3.org/2000/svg" xmlns:xlink="http://www.w3.org/1999/xlink" x="0px" y="0px"
	 width="170.079px" height="170.079px" viewBox="0 0 170.079 170.079" enable-background="new 0 0 170.079 170.079"
	 xml:space="preserve">
<g>
	<rect width="170.079" height="170.079"/>
	<g>
		<g>
			<path fill="#FFFFFF" d="M11.344,70.521v-0.268c0-8.104,5.278-13.642,12.513-13.642c3.922,0,6.521,1.336,8.797,3.321l-2.797,3.405
				c-1.64-1.451-3.478-2.6-6-2.6c-4.396,0-7.714,3.818-7.714,9.515v0.151c0,5.805,3.318,9.592,7.714,9.592
				c2.681,0,4.438-1.184,6.2-2.791l2.719,3.131c-2.437,2.412-5.277,3.786-9.158,3.786C16.462,84.124,11.344,78.697,11.344,70.521z"
				/>
			<path fill="#FFFFFF" d="M45.239,56.839h4.477l10.276,26.898h-4.837l-2.321-6.303h-10.87l-2.326,6.303h-4.675L45.239,56.839z
				 M51.397,73.499l-3.996-10.734l-3.999,10.734H51.397z"/>
			<path fill="#FFFFFF" d="M63.983,56.989h10.115c3.197,0,5.799,0.919,7.475,2.526c1.479,1.414,2.321,3.438,2.321,5.882v0.157
				c0,4.124-2.401,6.685-5.799,7.829l6.597,10.354h-5.354l-5.958-9.476c-0.079,0.037-0.198,0.037-0.278,0.037h-4.479v9.438h-4.638
				V56.989z M73.621,70.326c3.595,0,5.595-1.831,5.595-4.621v-0.077c0-3.017-2.039-4.583-5.519-4.583h-5.076v9.28H73.621z"/>
			<path fill="#FFFFFF" d="M88.919,56.989h17.637v4.015H93.521v7.263h11.554v4.011H93.521v7.449h13.232v4.011H88.919V56.989z"/>
			<path fill="#FFFFFF" d="M111.62,56.989h17.633v4.015h-13.031v7.263h11.555v4.011h-11.555v7.449h13.234v4.011H111.62V56.989z"/>
			<path fill="#FFFFFF" d="M134.327,56.989h10.112c3.2,0,5.799,0.919,7.475,2.526c1.482,1.414,2.318,3.438,2.318,5.882v0.157
				c0,4.124-2.395,6.685-5.796,7.829l6.598,10.354h-5.356l-5.958-9.476c-0.079,0.037-0.199,0.037-0.28,0.037h-4.478v9.438h-4.635
				V56.989z M143.96,70.326c3.6,0,5.597-1.831,5.597-4.621v-0.077c0-3.017-2.039-4.583-5.519-4.583h-5.076v9.28H143.96z"/>
		</g>
		<g>
			<path fill="#FFFFFF" d="M12.35,101.117v-0.17c0-7.281,4.732-12.352,10.938-12.352c3.395,0,5.593,1.244,7.543,2.937l-1.156,1.303
				c-1.694-1.548-3.681-2.652-6.459-2.652c-5.088,0-9.022,4.451-9.022,10.729v0.137c0,6.345,3.934,10.796,9.022,10.796
				c2.708,0,4.729-1.033,6.642-2.827l1.119,1.208c-2.057,1.86-4.438,3.21-7.83,3.21C17.008,113.435,12.35,108.5,12.35,101.117z"/>
			<path fill="#FFFFFF" d="M33.709,101.152v-0.24c0-7.039,4.332-12.35,10.686-12.35c6.353,0,10.611,5.278,10.611,12.316v0.238
				c0,7.036-4.293,12.352-10.648,12.352C38.004,113.468,33.709,108.191,33.709,101.152z M53.166,101.152v-0.24
				c0-6.212-3.754-10.763-8.809-10.763c-5.087,0-8.807,4.518-8.807,10.729v0.238c0,6.215,3.755,10.765,8.844,10.765
				C49.449,111.881,53.166,107.36,53.166,101.152z"/>
			<path fill="#FFFFFF" d="M60.447,88.942h1.734l14.541,20.801V88.942h1.736v24.146h-1.443L62.181,91.805v21.283h-1.734V88.942z"/>
			<path fill="#FFFFFF" d="M83.21,110.085l1.194-1.343c2.273,2.035,4.477,3.102,7.435,3.102c3.39,0,5.74-2.034,5.74-4.656v-0.064
				c0-2.28-1.154-3.763-6.1-5.419c-5.525-1.897-7.258-3.796-7.258-6.933V94.7c0-3.413,3.066-6.104,7.329-6.104
				c2.891,0,5.161,0.831,7.361,2.62l-1.116,1.383c-1.986-1.689-4.044-2.416-6.315-2.416c-3.321,0-5.45,1.968-5.45,4.383v0.068
				c0,2.347,1.19,3.791,6.276,5.485c5.419,1.896,7.041,3.896,7.041,6.896v0.07c0,3.658-3.178,6.35-7.542,6.35
				C88.521,113.435,85.847,112.397,83.21,110.085z"/>
			<path fill="#FFFFFF" d="M104.281,104.225V88.942h1.772v15.175c0,4.968,2.708,7.765,7.146,7.765c4.296,0,7.038-2.589,7.038-7.656
				V88.942h1.806v15.145c0,6.034-3.612,9.382-8.919,9.382C107.892,113.468,104.281,110.121,104.281,104.225z"/>
			<path fill="#FFFFFF" d="M128.131,88.942h1.807V111.5h12.234v1.589h-14.041V88.942z"/>
			<path fill="#FFFFFF" d="M149.528,90.527h-7.36v-1.585h16.568v1.585h-7.403v22.562h-1.805V90.527z"/>
		</g>
	</g>
	<line fill="none" stroke="#FFFFFF" stroke-width="2.126" stroke-miterlimit="10" x1="0" y1="30.296" x2="170.079" y2="30.296"/>
	<line fill="none" stroke="#FFFFFF" stroke-width="2.126" stroke-miterlimit="10" x1="0" y1="139.783" x2="170.079" y2="139.783"/>
</g>
</svg>
